<svg xmlns="http://www.w3.org/2000/svg" viewBox="0 0 600 600" width="600" height="600">
  <rect width="600" height="600" fill="#FFFFFF"/>
  <circle cx="300" cy="300" r="278" fill="none" stroke="#000000" stroke-width="11"/>
  <path d="M84.63953125 200.6494140625H120.528203125L145.430546875 259.169921875L170.479375 200.6494140625H206.2948046875V310.0H179.6346484375V230.01953125L154.4393359375 288.9794921875H136.5682421875L111.3729296875 230.01953125V310.0H84.63953125Z M239.907109375 200.6494140625H271.40125L311.1717578125 275.6494140625V200.6494140625H337.90515625V310.0H306.411015625L266.6405078125 235.0V310.0H239.907109375Z M362.1424609375 200.6494140625H389.168828125L408.0653125 280.1171875L426.8153125 200.6494140625H453.9881640625L472.7381640625 280.1171875L491.6346484375 200.6494140625H518.4412890625L492.6600390625 310.0H460.1405078125L440.291875 226.8701171875L420.66296875 310.0H388.1434375Z" fill="#000000"/>
  <path d="M132.343984375 367.123046875H124.9553125L122.8225 375.603515625H130.261953125ZM128.535390625 352.67578125 125.894765625 363.212890625H133.308828125L135.97484375 352.67578125H140.03734375L137.422109375 363.212890625H145.343984375V367.123046875H136.431875L134.34984375 375.603515625H142.4240625V379.48828125H133.359609375L130.718984375 390.0H126.656484375L129.27171875 379.48828125H121.832265625L119.21703125 390.0H115.129140625L117.769765625 379.48828125H109.77171875V375.603515625H118.70921875L120.84203125 367.123046875H112.66625V363.212890625H121.832265625L124.422109375 352.67578125Z M154.230703125 361.5625H158.902578125V390.0H154.230703125ZM154.230703125 350.4921875H158.902578125V356.408203125H154.230703125Z M189.1428125 362.654296875V367.021484375Q187.16234375 365.9296875 185.1691796875 365.3837890625Q183.176015625 364.837890625 181.144765625 364.837890625Q176.59984375 364.837890625 174.086171875 367.7197265625Q171.5725 370.6015625 171.5725 375.806640625Q171.5725 381.01171875 174.086171875 383.8935546875Q176.59984375 386.775390625 181.144765625 386.775390625Q183.176015625 386.775390625 185.1691796875 386.2294921875Q187.16234375 385.68359375 189.1428125 384.591796875V388.908203125Q187.187734375 389.822265625 185.0930078125 390.279296875Q182.99828125 390.736328125 180.636953125 390.736328125Q174.213125 390.736328125 170.429921875 386.69921875Q166.64671875 382.662109375 166.64671875 375.806640625Q166.64671875 368.849609375 170.4680078125 364.86328125Q174.289296875 360.876953125 180.941640625 360.876953125Q183.09984375 360.876953125 185.156484375 361.3212890625Q187.213125 361.765625 189.1428125 362.654296875Z M201.88890625 353.48828125V361.5625H211.511953125V365.193359375H201.88890625V380.630859375Q201.88890625 384.109375 202.8410546875 385.099609375Q203.793203125 386.08984375 206.713125 386.08984375H211.511953125V390.0H206.713125Q201.304921875 390.0 199.24828125 387.9814453125Q197.191640625 385.962890625 197.191640625 380.630859375V365.193359375H193.76390625V361.5625H197.191640625V353.48828125Z M239.26390625 398.6328125V402.263671875H212.24828125V398.6328125Z M258.05296875 350.4921875V354.376953125H253.58421875Q251.070546875 354.376953125 250.0930078125 355.392578125Q249.11546875 356.408203125 249.11546875 359.048828125V361.5625H256.808828125V365.193359375H249.11546875V390.0H244.418203125V365.193359375H239.949453125V361.5625H244.418203125V359.58203125Q244.418203125 354.833984375 246.6271875 352.6630859375Q248.836171875 350.4921875 253.635 350.4921875Z M272.98265625 364.837890625Q269.22484375 364.837890625 267.04125 367.7705078125Q264.85765625 370.703125 264.85765625 375.806640625Q264.85765625 380.91015625 267.0285546875 383.8427734375Q269.199453125 386.775390625 272.98265625 386.775390625Q276.715078125 386.775390625 278.898671875 383.830078125Q281.082265625 380.884765625 281.082265625 375.806640625Q281.082265625 370.75390625 278.898671875 367.7958984375Q276.715078125 364.837890625 272.98265625 364.837890625ZM272.98265625 360.876953125Q279.07640625 360.876953125 282.554921875 364.837890625Q286.0334375 368.798828125 286.0334375 375.806640625Q286.0334375 382.7890625 282.554921875 386.7626953125Q279.07640625 390.736328125 272.98265625 390.736328125Q266.863515625 390.736328125 263.3976953125 386.7626953125Q259.931875 382.7890625 259.931875 375.806640625Q259.931875 368.798828125 263.3976953125 364.837890625Q266.863515625 360.876953125 272.98265625 360.876953125Z M310.25609375 365.9296875Q309.468984375 365.47265625 308.5422265625 365.2568359375Q307.61546875 365.041015625 306.49828125 365.041015625Q302.53734375 365.041015625 300.4172265625 367.6181640625Q298.297109375 370.1953125 298.297109375 375.01953125V390.0H293.59984375V361.5625H298.297109375V365.98046875Q299.769765625 363.390625 302.13109375 362.1337890625Q304.492421875 360.876953125 307.869375 360.876953125Q308.351796875 360.876953125 308.93578125 360.9404296875Q309.519765625 361.00390625 310.230703125 361.130859375Z M336.76390625 398.6328125V402.263671875H309.74828125V398.6328125Z M355.55296875 350.4921875V354.376953125H351.08421875Q348.570546875 354.376953125 347.5930078125 355.392578125Q346.61546875 356.408203125 346.61546875 359.048828125V361.5625H354.308828125V365.193359375H346.61546875V390.0H341.918203125V365.193359375H337.449453125V361.5625H341.918203125V359.58203125Q341.918203125 354.833984375 344.1271875 352.6630859375Q346.336171875 350.4921875 351.135 350.4921875Z M358.980703125 378.77734375V361.5625H363.652578125V378.599609375Q363.652578125 382.63671875 365.226796875 384.6552734375Q366.801015625 386.673828125 369.949453125 386.673828125Q373.73265625 386.673828125 375.9289453125 384.26171875Q378.125234375 381.849609375 378.125234375 377.685546875V361.5625H382.797109375V390.0H378.125234375V385.6328125Q376.4240625 388.22265625 374.1769921875 389.4794921875Q371.929921875 390.736328125 368.95921875 390.736328125Q364.058828125 390.736328125 361.519765625 387.689453125Q358.980703125 384.642578125 358.980703125 378.77734375ZM370.7365625 360.876953125Z M397.04125 353.48828125V361.5625H406.664296875V365.193359375H397.04125V380.630859375Q397.04125 384.109375 397.9933984375 385.099609375Q398.945546875 386.08984375 401.86546875 386.08984375H406.664296875V390.0H401.86546875Q396.457265625 390.0 394.400625 387.9814453125Q392.343984375 385.962890625 392.343984375 380.630859375V365.193359375H388.91625V361.5625H392.343984375V353.48828125Z M412.32640625 378.77734375V361.5625H416.99828125V378.599609375Q416.99828125 382.63671875 418.5725 384.6552734375Q420.14671875 386.673828125 423.29515625 386.673828125Q427.078359375 386.673828125 429.2746484375 384.26171875Q431.4709375 381.849609375 431.4709375 377.685546875V361.5625H436.1428125V390.0H431.4709375V385.6328125Q429.769765625 388.22265625 427.5226953125 389.4794921875Q425.275625 390.736328125 422.304921875 390.736328125Q417.40453125 390.736328125 414.86546875 387.689453125Q412.32640625 384.642578125 412.32640625 378.77734375ZM424.082265625 360.876953125Z M462.244375 365.9296875Q461.457265625 365.47265625 460.5305078125 365.2568359375Q459.60375 365.041015625 458.4865625 365.041015625Q454.525625 365.041015625 452.4055078125 367.6181640625Q450.285390625 370.1953125 450.285390625 375.01953125V390.0H445.588125V361.5625H450.285390625V365.98046875Q451.758046875 363.390625 454.119375 362.1337890625Q456.480703125 360.876953125 459.85765625 360.876953125Q460.340078125 360.876953125 460.9240625 360.9404296875Q461.508046875 361.00390625 462.218984375 361.130859375Z M491.468984375 374.61328125V376.8984375H469.988515625Q470.293203125 381.72265625 472.8957421875 384.2490234375Q475.49828125 386.775390625 480.144765625 386.775390625Q482.836171875 386.775390625 485.3625390625 386.115234375Q487.88890625 385.455078125 490.3771875 384.134765625V388.552734375Q487.863515625 389.619140625 485.222890625 390.177734375Q482.582265625 390.736328125 479.86546875 390.736328125Q473.06078125 390.736328125 469.0871484375 386.775390625Q465.113515625 382.814453125 465.113515625 376.060546875Q465.113515625 369.078125 468.8840234375 364.9775390625Q472.65453125 360.876953125 479.05296875 360.876953125Q484.79125 360.876953125 488.1301171875 364.5712890625Q491.468984375 368.265625 491.468984375 374.61328125ZM486.797109375 373.2421875Q486.746328125 369.408203125 484.6516015625 367.123046875Q482.556875 364.837890625 479.10375 364.837890625Q475.19359375 364.837890625 472.8449609375 367.046875Q470.496328125 369.255859375 470.140859375 373.267578125Z" fill="#000000"/>
</svg>
